<?xml version="1.0" encoding="UTF-8" standalone="no"?>
<!-- Uploaded to: SVG Repo, www.svgrepo.com, Generator: SVG Repo Mixer Tools -->

<svg
   width="32"
   height="28.889692"
   viewBox="0 0 1.28 1.1555877"
   version="1.1"
   id="svg1"
   sodipodi:docname="cart-svgrepo-com.svg"
   inkscape:version="1.4.2 (f4327f4, 2025-05-13)"
   xmlns:inkscape="http://www.inkscape.org/namespaces/inkscape"
   xmlns:sodipodi="http://sodipodi.sourceforge.net/DTD/sodipodi-0.dtd"
   xmlns="http://www.w3.org/2000/svg"
   xmlns:svg="http://www.w3.org/2000/svg">
  <defs
     id="defs1" />
  <sodipodi:namedview
     id="namedview1"
     pagecolor="#ffffff"
     bordercolor="#000000"
     borderopacity="0.25"
     inkscape:showpageshadow="2"
     inkscape:pageopacity="0.0"
     inkscape:pagecheckerboard="0"
     inkscape:deskcolor="#d1d1d1"
     showguides="true"
     inkscape:zoom="8.33"
     inkscape:cx="2.3409364"
     inkscape:cy="30.312125"
     inkscape:window-width="1920"
     inkscape:window-height="1051"
     inkscape:window-x="-9"
     inkscape:window-y="-9"
     inkscape:window-maximized="1"
     inkscape:current-layer="svg1">
    <sodipodi:guide
       position="1.3733493,2.2910651"
       orientation="0,-1"
       id="guide1"
       inkscape:locked="false" />
  </sodipodi:namedview>
  <g
     id="icomoon-ignore"
     style="fill:#ebebef;fill-opacity:0.862745;stroke:none;stroke-opacity:0.862745"
     transform="matrix(0.04377116,0,0,0.04168486,-0.06036044,-0.08912226)" />
  <path
     d="M 1.28,0.31113582 H 0.29921962 L 0.22003758,0 H 0 V 0.04443603 H 0.18331357 L 0.4108361,0.9382845 c -0.0484982,0.0134643 -0.084172,0.0556075 -0.084172,0.1061714 0,0.06136 0.0522193,0.1111318 0.11669387,0.1111318 0.0644745,0 0.11669395,-0.049772 0.11669395,-0.1111318 0,-0.025136 -0.009104,-0.0480625 -0.0238553,-0.0666543 H 0.8639112 C 0.8491601,0.9963934 0.8400558,1.019361 0.8400558,1.0444559 c 0,0.06136 0.0522197,0.1111318 0.11665009,0.1111318 0.0644306,0 0.11669381,-0.049772 0.11669381,-0.1111318 0,-0.0614014 -0.05222,-0.1110902 -0.11669381,-0.11113185 v 0 H 0.45758373 L 0.43495401,0.84441019 H 1.0901207 L 1.2799563,0.31105247 Z M 0.51334815,1.0445393 c 0,0.036766 -0.0313835,0.066654 -0.06999,0.066654 -0.0386065,0 -0.06999,-0.029888 -0.06999,-0.066654 0,-0.036766 0.0313836,-0.0666544 0.06999,-0.0666544 0.0386065,0 0.06999,0.0299298 0.06999,0.0666544 z m 0.51339195,0 c 0,0.036766 -0.0314277,0.066654 -0.0700342,0.066654 -0.0386065,0 -0.0699903,-0.029888 -0.0699903,-0.066654 0,-0.036766 0.0313838,-0.0666544 0.0699903,-0.0666544 0.0386065,0 0.0700342,0.0299298 0.0700342,0.0666544 z M 0.42366102,0.80005752 0.31051261,0.35561351 H 1.2149124 L 1.0566795,0.80005752 Z"
     fill="#000000"
     id="path1"
     style="fill:#ebebef;fill-opacity:0.862745;stroke:none;stroke-width:0.0427153;stroke-opacity:0.862745" />
</svg>
