<?xml version="1.0" encoding="UTF-8" standalone="no"?>
<!-- Uploaded to: SVG Repo, www.svgrepo.com, Generator: SVG Repo Mixer Tools -->

<svg
   fill="#000000"
   height="38.002399"
   width="32"
   version="1.1"
   id="Capa_1"
   viewBox="0 0 19.56 23.228967"
   xml:space="preserve"
   sodipodi:docname="shopping-bag-svgrepo-com.svg"
   inkscape:version="1.4.2 (f4327f4, 2025-05-13)"
   xmlns:inkscape="http://www.inkscape.org/namespaces/inkscape"
   xmlns:sodipodi="http://sodipodi.sourceforge.net/DTD/sodipodi-0.dtd"
   xmlns="http://www.w3.org/2000/svg"
   xmlns:svg="http://www.w3.org/2000/svg"><defs
   id="defs1" /><sodipodi:namedview
   id="namedview1"
   pagecolor="#ffffff"
   bordercolor="#000000"
   borderopacity="0.25"
   inkscape:showpageshadow="2"
   inkscape:pageopacity="0.0"
   inkscape:pagecheckerboard="0"
   inkscape:deskcolor="#d1d1d1"
   inkscape:zoom="8.33"
   inkscape:cx="59.963986"
   inkscape:cy="49.279712"
   inkscape:window-width="1920"
   inkscape:window-height="1051"
   inkscape:window-x="-9"
   inkscape:window-y="-9"
   inkscape:window-maximized="1"
   inkscape:current-layer="Capa_1" />
<g
   id="g1"
   style="fill:#ebebef;fill-opacity:0.862745"
   transform="matrix(0.04997445,0,0,0.047503,-2.4387532,0)">
	<path
   d="m 440.1,422.7 -28,-315.3 c -0.6,-7 -6.5,-12.3 -13.4,-12.3 H 341.1 C 340.3,42.5 297.3,0 244.5,0 191.7,0 148.7,42.5 147.9,95.1 H 90.3 c -7,0 -12.8,5.3 -13.4,12.3 l -28,315.3 c 0,0.4 -0.1,0.8 -0.1,1.2 0,35.9 32.9,65.1 73.4,65.1 h 244.6 c 40.5,0 73.4,-29.2 73.4,-65.1 0,-0.4 0,-0.8 -0.1,-1.2 z M 244.5,27 c 37.9,0 68.8,30.4 69.6,68.1 H 174.9 C 175.7,57.4 206.6,27 244.5,27 Z M 366.8,462 H 122.2 c -25.4,0 -46,-16.8 -46.4,-37.5 l 26.8,-302.3 h 45.2 v 41 c 0,7.5 6,13.5 13.5,13.5 7.5,0 13.5,-6 13.5,-13.5 v -41 h 139.3 v 41 c 0,7.5 6,13.5 13.5,13.5 7.5,0 13.5,-6 13.5,-13.5 v -41 h 45.2 l 26.9,302.3 c -0.4,20.7 -21.1,37.5 -46.4,37.5 z"
   id="path1"
   style="fill:#ebebef;fill-opacity:0.862745" />
</g>
</svg>
